<svg xmlns="http://www.w3.org/2000/svg" viewBox="0 0 128 128" role="img" aria-label="Disk Talkers icon">
  <rect width="128" height="128" rx="28" fill="#10161d"/>
  <rect x="20" y="24" width="88" height="24" rx="12" fill="#1a2530" stroke="#2d3c4d" stroke-width="2.5"/>
  <rect x="20" y="52" width="88" height="24" rx="12" fill="#1a2530" stroke="#2d3c4d" stroke-width="2.5"/>
  <rect x="20" y="80" width="88" height="24" rx="12" fill="#1a2530" stroke="#2d3c4d" stroke-width="2.5"/>

  <circle cx="34" cy="36" r="4.5" fill="#79d7c8"/>
  <circle cx="34" cy="64" r="4.5" fill="#79d7c8"/>
  <circle cx="34" cy="92" r="4.5" fill="#79d7c8"/>

  <path d="M48 36h29" stroke="#dbe6f2" stroke-width="4.5" stroke-linecap="round"/>
  <path d="M48 64h29" stroke="#dbe6f2" stroke-width="4.5" stroke-linecap="round"/>
  <path d="M48 92h29" stroke="#dbe6f2" stroke-width="4.5" stroke-linecap="round"/>

  <path d="M88 30c8 1.6 14 7.7 15.6 15.6" fill="none" stroke="#ff9b69" stroke-width="5.5" stroke-linecap="round"/>
  <path d="M84 38c4.1.9 7.2 4 8.1 8.1" fill="none" stroke="#ff9b69" stroke-width="5.5" stroke-linecap="round"/>

  <rect x="82" y="54" width="12" height="12" rx="4" fill="#74b7ff"/>
  <rect x="82" y="82" width="12" height="12" rx="4" fill="#74b7ff"/>
</svg>
